<svg xmlns="http://www.w3.org/2000/svg" width="200" height="50" viewBox="0 0 2500 500" preserveAspectRatio="xMidYMid meet">
  <style>
    :root {
      --m3-logo-onsurface: #3df0d0;
    }
    @media (prefers-color-scheme: light) {
      :root {
        --m3-logo-onsurface: #1c1b1f;
      }
    }
  </style>
  <defs>
    <filter id="e1" x="-5%" y="-5%" width="110%" height="110%">
      <feDropShadow dx="0" dy="4" stdDeviation="8" flood-color="#000" flood-opacity="0.3"/>
    </filter>
  </defs>

  <!-- Wordmark: SENTENZ -->
  <g id="layer101" fill="currentColor" stroke="none" filter="url(#e1)" style="color: var(--m3-logo-onsurface, #e6e0f0);">

    <!-- S -->
    <path d="M392 412.3 C389.2 408.1 394.1 397.6 403.2 387.8 C417.9 371.7 423.5 371 498.4 371 L578.2 371 L576.1 338.8 L574 306.6 L493.5 269.5 C362.6 208.6 374.5 220.5 374.5 148.4 C374.5 109.9 377.3 84 382.9 78.4 C394.1 67.2 619.5 66.5 619.5 77 C619.5 81.2 611.1 92.4 600.6 101.5 C582.4 117.6 575.4 118.3 501.9 119 L422.8 119 L424.9 150.5 L427 182.7 L518 224.7 C568.4 248.5 613.2 270.9 618.1 274.4 C629.3 284.2 630 399.7 618.1 411.6 C606.9 422.8 398.3 423.5 392 412.3 Z"/>

    <!-- E -->
    <path d="M674.1 412.3 C662.9 406 661.5 390.6 661.5 246.4 C661.5 131.6 663.6 84.7 669.9 78.4 C679 69.3 864.5 65.8 864.5 75.6 C864.5 78.4 851.9 91 836.5 103.6 C811.3 123.9 805.7 126 760.2 126 L710.5 126 L710.5 245 L710.5 364 L765.1 364 C814.8 364.7 820.4 366.1 842.1 385 C854 396.2 864.5 408.8 864.5 413 C864.5 422.1 690.2 422.1 674.1 412.3 Z"/>

    <!-- N -->
    <path d="M891.1 256.2 C891.8 167.3 894.6 90.3 896 85.4 C898.1 80.5 906.5 77 914.9 78.4 C934.5 81.2 991.9 177.1 989.1 203 C986.3 226.1 963.9 230.3 949.2 210.7 C938.7 197.4 938 202.3 939.4 285.6 L940.8 374.5 L914.9 396.2 L889 418.6 L891.1 256.2 Z"/>

    <!-- N -->
    <path d="M1057.7 404.6 C1022 346.5 996.8 297.5 998.9 288.4 C1000.3 282.8 1006.6 274.4 1013.6 270.2 C1024.1 263.9 1029 265.3 1040.2 279.3 L1053.5 295.4 L1053.5 205.8 C1054.2 115.5 1054.2 115.5 1074.5 93.1 C1085.7 80.5 1096.9 70 1099 70 C1101.1 70 1102.5 144.9 1102.5 236.6 C1102.5 404.6 1100.4 420 1076.6 420 C1071.7 420 1063.3 413 1057.7 404.6 Z"/>

    <!-- T -->
    <path d="M1208.9 269.5 L1211 119 L1178.8 119 C1154.3 119 1143.1 115.5 1131.9 102.9 C1102.5 72.1 1108.1 70 1235.5 70 C1313.9 70 1354.5 72.8 1354.5 77 C1354.5 94.5 1316 118.3 1288 119 L1260 119 L1262.1 269.5 L1264.2 420 L1235.5 420 L1206.8 420 L1208.9 269.5 Z"/>

    <!-- E -->
    <path d="M1376.9 408.8 C1361.5 398.3 1361.5 395.5 1361.5 246.4 C1362.2 130.9 1364.3 91.7 1371.3 82.6 C1379 71.4 1393 70 1472.8 70 C1523.2 70 1564.5 72.8 1564.5 75.6 C1564.5 78.4 1554 91 1541.4 103.6 C1519.7 124.6 1515.5 126 1466.5 126 L1414 126 L1414 245 L1414 364 L1466.5 364 C1514.8 364.7 1521.1 366.1 1542.1 385 C1554 396.2 1564.5 408.8 1564.5 413 C1564.5 417.2 1532.3 420 1478.4 420 C1411.9 420 1388.8 417.2 1376.9 408.8 Z"/>

    <!-- N -->
    <path d="M1598.1 254.1 C1599.5 122.5 1602.3 85.4 1610 77.7 C1617.7 69.3 1621.9 69.3 1630.3 76.3 C1646.4 89.6 1697.5 186.2 1697.5 203 C1697.5 221.2 1678.6 228.9 1661.8 217.7 C1649.2 210 1648.5 213.5 1648.5 293.3 L1648.5 376.6 L1624 398.3 C1610 410.2 1598.1 420 1597.4 420 C1596.7 420 1596.7 345.1 1598.1 254.1 Z"/>

    <!-- N -->
    <path d="M1768.9 411.6 C1752.1 389.2 1704.5 298.2 1704.5 287 C1704.5 266 1732.5 261.1 1747.9 280 C1760.5 295.4 1760.5 293.3 1760.5 205.1 L1760.5 114.8 L1785 91 L1809.5 67.2 L1809.5 235.2 C1809.5 403.2 1807.4 420 1784.3 420 C1780.1 420 1773.1 415.8 1768.9 411.6 Z"/>

    <!-- Z -->
    <path d="M1866.9 411.6 C1862 406.7 1858.5 399.7 1858.5 394.8 C1858.5 390.6 1899.1 326.9 1948.8 252.7 L2039.1 119 L1967.7 119 C1901.9 119 1894.9 117.6 1880.9 102.9 C1851.5 71.4 1857.1 69.3 1981.7 71.4 C2083.9 73.5 2099.3 74.9 2106.3 85.4 C2111.2 93.8 2111.9 101.5 2107 107.8 C2102.8 113.4 2061.5 174.3 2013.9 244.3 L1927.8 371 L1999.9 371 C2067.1 371.7 2073.4 372.4 2092.3 389.2 C2108.4 403.9 2110.5 408.8 2102.8 413.7 C2087.4 423.5 1876.7 421.4 1866.9 411.6 Z" opacity="0.85"/>

    <!-- Dash between E and T -->
    <path d="M724.5 245 L724.5 224 L770 224 L815.5 224 L815.5 245 L815.5 266 L770 266 L724.5 266 L724.5 245 Z" opacity="0.5"/>

    <!-- Dash between E and N -->
    <path d="M1431.5 245 L1431.5 224 L1477 224 L1522.5 224 L1522.5 245 L1522.5 266 L1477 266 L1431.5 266 L1431.5 245 Z" opacity="0.5"/>
  </g>
</svg>
