<svg xmlns="http://www.w3.org/2000/svg" width="249" height="50" viewBox="0 0 2490 500" preserveAspectRatio="xMidYMid meet">
  <style>
    :root {
      --m3-logo-surface: #100a2c;
      --m3-logo-onsurface: #3df0d0;
      --m3-logo-primary: #3df0d0;
      --m3-logo-outline: rgba(201, 191, 240, 0.12);
    }
    @media (prefers-color-scheme: light) {
      :root {
        --m3-logo-surface: #fdf8fd;
        --m3-logo-onsurface: #3df0d0;
        --m3-logo-primary: #6a3fbe;
        --m3-logo-outline: rgba(28, 27, 31, 0.12);
      }
    }
  </style>
  <defs>
    <linearGradient id="se" x1="0" y1="0" x2="0" y2="1">
      <stop offset="0%" stop-color="#1f1654"/>
      <stop offset="100%" stop-color="#100a2c"/>
    </linearGradient>
    <filter id="e1" x="-5%" y="-5%" width="110%" height="110%">
      <feDropShadow dx="0" dy="8" stdDeviation="16" flood-color="#000" flood-opacity="0.35"/>
    </filter>
    <filter id="g1" x="-20%" y="-20%" width="140%" height="140%">
      <feGaussianBlur stdDeviation="10" result="b"/>
      <feMerge>
        <feMergeNode in="b"/>
        <feMergeNode in="SourceGraphic"/>
      </feMerge>
    </filter>
  </defs>

  <!-- M3 Surface Container background (optional, for context) -->
  <rect x="0" y="0" width="2490" height="500" rx="60" ry="60"
        fill="url(#se)" opacity="0" id="bg"/>

  <!-- Wordmark: MATERIAL -->
  <g id="layer101" fill="currentColor" stroke="none" transform="scale(0.7 0.7) translate(525 100)"
     filter="url(#e1)" style="color: var(--m3-logo-onsurface, #3df0d0);">

    <!-- M -->
    <path d="M35 489 c-4 -6 3 -21 16 -35 21 -23 29 -24 136 -24 l114 0 -3 -46 -3 -46 -115 -53 c-187 -87 -170 -70 -170 -173 0 -55 4 -92 12 -100 16 -16 338 -17 338 -2 0 6 -12 22 -27 35 -26 23 -36 24 -141 25 l-113 0 3 45 3 46 130 60 c72 34 136 66 143 71 16 14 17 179 0 196 -16 16 -314 17 -323 1z"/>

    <!-- A -->
    <path d="M438 489 c-16 -9 -18 -31 -18 -237 0 -164 3 -231 12 -240 13 -13 278 -18 278 -4 0 4 -18 22 -40 40 -36 29 -44 32 -109 32 l-71 0 0 170 0 170 78 0 c71 1 79 3 110 30 17 16 32 34 32 40 0 13 -249 13 -272 -1z"/>

    <!-- T -->
    <path d="M748 266 c1 -127 5 -237 7 -244 3 -7 15 -12 27 -10 28 4 110 141 106 178 -4 33 -36 39 -57 11 -15 -19 -16 -12 -14 107 l2 127 -37 31 -37 32 3 -232z"/>

    <!-- E -->
    <path d="M986 478 c-51 -83 -87 -153 -84 -166 2 -8 11 -20 21 -26 15 -9 22 -7 38 13 l19 23 0 -128 c1 -129 1 -129 30 -161 16 -18 32 -33 35 -33 3 0 5 107 5 238 0 240 -3 262 -37 262 -7 0 -19 -10 -27 -22z"/>

    <!-- R -->
    <path d="M1202 285 l3 -215 -46 0 c-35 0 -51 -5 -67 -23 -42 -44 -34 -47 148 -47 112 0 170 4 170 10 0 25 -55 59 -95 60 l-40 0 3 215 3 215 -41 0 -41 0 3 -215z"/>

    <!-- I -->
    <path d="M1442 484 c-22 -15 -22 -19 -22 -232 1 -165 4 -221 14 -234 11 -16 31 -18 145 -18 72 0 131 4 131 8 0 4 -15 22 -33 40 -31 30 -37 32 -107 32 l-75 0 0 170 0 170 75 0 c69 1 78 3 108 30 17 16 32 34 32 40 0 6 -46 10 -123 10 -95 0 -128 -4 -145 -16z"/>

    <!-- A -->
    <path d="M1758 263 c2 -188 6 -241 17 -252 11 -12 17 -12 29 -2 23 19 96 157 96 181 0 26 -27 37 -51 21 -18 -11 -19 -6 -19 108 l0 119 -35 31 c-20 17 -37 31 -38 31 -1 0 -1 -107 1 -237z"/>

    <!-- L -->
    <path d="M2002 488 c-24 -32 -92 -162 -92 -178 0 -30 40 -37 62 -10 18 22 18 19 18 -107 l0 -129 35 -34 35 -34 0 240 c0 240 -3 264 -36 264 -6 0 -16 -6 -22 -12z"/>

    <!-- Decorative extension (after L) -->
    <path d="M2142 488 c-7 -7 -12 -17 -12 -24 0 -6 58 -97 129 -203 l129 -191 -102 0 c-94 0 -104 -2 -124 -23 -42 -45 -34 -48 144 -45 146 3 168 5 178 20 7 12 8 23 1 32 -6 8 -65 95 -133 195 l-123 181 103 0 c96 1 105 2 132 26 23 21 26 28 15 35 -22 14 -323 11 -337 -3z"
          opacity="0.85"/>

    <!-- Dash between A and T -->
    <path d="M510 250 l0 -30 65 0 65 0 0 30 0 30 -65 0 -65 0 0 -30z"
          opacity="0.5"/>

    <!-- Dash between I and A -->
    <path d="M1520 250 l0 -30 65 0 65 0 0 30 0 30 -65 0 -65 0 0 -30z"
          opacity="0.5"/>
  </g>
</svg>
