<svg xmlns="http://www.w3.org/2000/svg" viewBox="0 0 2500 500" preserveAspectRatio="xMidYMid meet">
  <style>
    :root {
      --m3-logo-onsurface: #e6e0f0;
    }
    @media (prefers-color-scheme: dark) {
      :root {
        --m3-logo-onsurface: #e6e0f0;
      }
    }
  </style>
  <!-- Wordmark: SENTENZ -->
  <g id="layer101" fill="currentColor" stroke="none" filter="url(#e1)" style="color: var(--m3-logo-onsurface,#e6e0f0);">
    <!-- S -->
    <path d="M35 489 c-4 -6 3 -21 16 -35 21 -23 29 -24 136 -24 l114 0 -3 -46 -3 -46 -115 -53 c-187 -87 -170 -70 -170 -173 0 -55 4 -92 12 -100 16 -16 338 -17 338 -2 0 6 -12 22 -27 35 -26 23 -36 24 -141 25 l-113 0 3 45 3 46 130 60 c72 34 136 66 143 71 16 14 17 179 0 196 -16 16 -314 17 -323 1z"/>
    <!-- E -->
    <path d="M438 489 c-16 -9 -18 -31 -18 -237 0 -164 3 -231 12 -240 13 -13 278 -18 278 -4 0 4 -18 22 -40 40 -36 29 -44 32 -109 32 l-71 0 0 170 0 170 78 0 c71 1 79 3 110 30 17 16 32 34 32 40 0 13 -249 13 -272 -1z"/>
    <!-- N -->
    <path d="M748 266 c1 -127 5 -237 7 -244 3 -7 15 -12 27 -10 28 4 110 141 106 178 -4 33 -36 39 -57 11 -15 -19 -16 -12 -14 107 l2 127 -37 31 -37 32 3 -232z"/>
    <!-- N -->
    <path d="M986 478 c-51 -83 -87 -153 -84 -166 2 -8 11 -20 21 -26 15 -9 22 -7 38 13 l19 23 0 -128 c1 -129 1 -129 30 -161 16 -18 32 -33 35 -33 3 0 5 107 5 238 0 240 -3 262 -37 262 -7 0 -19 -10 -27 -22z"/>
    <!-- T -->
    <path d="M1202 285 l3 -215 -46 0 c-35 0 -51 -5 -67 -23 -42 -44 -34 -47 148 -47 112 0 170 4 170 10 0 25 -55 59 -95 60 l-40 0 3 215 3 215 -41 0 -41 0 3 -215z"/>
    <!-- E -->
    <path d="M1442 484 c-22 -15 -22 -19 -22 -232 1 -165 4 -221 14 -234 11 -16 31 -18 145 -18 72 0 131 4 131 8 0 4 -15 22 -33 40 -31 30 -37 32 -107 32 l-75 0 0 170 0 170 75 0 c69 1 78 3 108 30 17 16 32 34 32 40 0 6 -46 10 -123 10 -95 0 -128 -4 -145 -16z"/>
    <!-- N -->
    <path d="M1758 263 c2 -188 6 -241 17 -252 11 -12 17 -12 29 -2 23 19 96 157 96 181 0 26 -27 37 -51 21 -18 -11 -19 -6 -19 108 l0 119 -35 31 c-20 17 -37 31 -38 31 -1 0 -1 -107 1 -237z"/>
    <!-- N -->
    <path d="M2002 488 c-24 -32 -92 -162 -92 -178 0 -30 40 -37 62 -10 18 22 18 19 18 -107 l0 -129 35 -34 35 -34 0 240 c0 240 -3 264 -36 264 -6 0 -16 -6 -22 -12z"/>
    <!-- Z -->
    <path d="M2142 488 c-7 -7 -12 -17 -12 -24 0 -6 58 -97 129 -203 l129 -191 -102 0 c-94 0 -104 -2 -124 -23 -42 -45 -34 -48 144 -45 146 3 168 5 178 20 7 12 8 23 1 32 -6 8 -65 95 -133 195 l-123 181 103 0 c96 1 105 2 132 26 23 21 26 28 15 35 -22 14 -323 11 -337 -3z"/>
    <!-- Dash between E and N -->
    <path d="M510 250 l0 -30 65 0 65 0 0 30 0 30 -65 0 -65 0 0 -30z" opacity="0.75"/>
    <!-- Dash between N and T -->
    <path d="M1520 250 l0 -30 65 0 65 0 0 30 0 30 -65 0 -65 0 0 -30z" opacity="0.75"/>
  </g>
</svg>
